<?xml version="1.0"?>
<!--Icons from directory ""-->
<svg xmlns="http://www.w3.org/2000/svg" width="32" height="96" viewBox="0 0 32 96"><svg xmlns:xlink="http://www.w3.org/1999/xlink" id="webicon-facebook" xml:space="preserve" viewBox="-14 -14 48 48" version="1.1" y="0" x="0px" enable-background="new -14 -14 48 48" width="32" height="32"><linearGradient id="webicon-facebook-SVGID_1_" y2="-106.38" gradientUnits="userSpaceOnUse" x2="90.053" gradientTransform="matrix(7.2338 0 0 -7.2338 -641.5 -735.56)" y1="-99.76" x1="90.053">	<stop stop-color="#4B71B8" offset="0"/>	<stop stop-color="#293F7E" offset="1"/></linearGradient><path d="m33.931 27.993c0 3.304-2.689 5.983-6.002 5.983h-36.011c-3.315 0-6.001-2.683-6.001-5.983v-35.921c0-3.308 2.687-5.988 6.001-5.988h36.011c3.312 0 6.002 2.681 6.002 5.988v35.921z" fill="url(#webicon-facebook-SVGID_1_)"/><path d="m25.613-4.557h-6.166c-3.662 0-7.732 1.535-7.732 6.835 0.019 1.845 0 3.613 0 5.603h-4.234v6.728h4.366v19.37h8.021v-19.499h5.295l0.479-6.618h-5.913s0.016-2.946 0-3.8c0-2.093 2.184-1.974 2.312-1.974 1.042 0 3.059 0.003 3.578 0v-6.646h-0.006z" fill="#fff"/></svg><svg xmlns:xlink="http://www.w3.org/1999/xlink" id="webicon-github" xml:space="preserve" viewBox="0 0 48 48" version="1.1" y="32" x="0px" enable-background="new 0 0 48 48" width="32" height="32"><linearGradient id="webicon-github-SVGID_1_" y2="48" gradientUnits="userSpaceOnUse" x2="24" x1="24">	<stop stop-color="#fff" offset="0"/>	<stop stop-color="#EAEAEA" offset="1"/></linearGradient><g clip-rule="evenodd" fill-rule="evenodd"><path fill="url(#webicon-github-SVGID_1_)" d="m48 42c0 3.313-2.687 6-6 6h-36c-3.313 0-6-2.687-6-6v-36c0-3.313 2.687-6 6-6h36c3.313 0 6 2.687 6 6v36z"/><path fill="none" d="m27.695 29.811s1.519 5.062 5.974 4.05c4.456-1.013 4.759-6.684 2.127-9.619-2.633-2.937-9.417 1.72-8.101 5.569z"/><path d="m11.828 18.179s-3.344 3.499-2.763 9.192c0.581 5.694 4.186 10.392 16.208 10.392 12.021 0 15.045-6.275 15.116-11.436 0.071-5.159-2.253-7.46-3.344-8.243 0 0 0.007-3.704-0.343-5.661 0 0-1.85-0.219-5.845 2.07 0 0-5.454-0.533-12.722 0.065 0 0-3.053-2.04-6.129-2.574 0 0-0.51 3.212-0.178 6.195z"/><path fill="#E2B89F" d="m17.211 23.815h14.916s4.227-0.475 4.227 6.44c0.034 6.086-11.139 5.693-11.139 5.693s-12.236 0.486-12.243-6.269c-0.016-6.1 4.239-5.864 4.239-5.864z"/></g>		<path fill="#9C584F" clip-rule="evenodd" d="m30.767 26.591c0.959 0 1.737 1.25 1.737 2.787 0 1.54-0.778 2.788-1.737 2.788-0.958 0-1.736-1.248-1.736-2.788-0.001-1.537 0.778-2.787 1.736-2.787z" fill-rule="evenodd"/>		<path d="m30.767 32.666c-1.254 0-2.236-1.444-2.236-3.288 0-1.843 0.982-3.287 2.236-3.287 1.255 0 2.237 1.444 2.237 3.287 0 1.844-0.983 3.288-2.237 3.288zm0-5.575c-0.585 0-1.236 0.939-1.236 2.287 0 1.349 0.651 2.288 1.236 2.288s1.237-0.939 1.237-2.288c0-1.348-0.652-2.287-1.237-2.287z" fill="#fff"/>		<path fill="#9C584F" clip-rule="evenodd" d="m18.767 26.591c0.959 0 1.737 1.25 1.737 2.787 0 1.54-0.778 2.788-1.737 2.788-0.958 0-1.736-1.248-1.736-2.788-0.001-1.537 0.778-2.787 1.736-2.787z" fill-rule="evenodd"/>		<path d="m18.767 32.666c-1.254 0-2.236-1.444-2.236-3.288 0-1.843 0.982-3.287 2.236-3.287s2.237 1.444 2.237 3.287c0 1.844-0.983 3.288-2.237 3.288zm0-5.575c-0.585 0-1.236 0.939-1.236 2.287 0 1.349 0.651 2.288 1.236 2.288s1.237-0.939 1.237-2.288c0-1.348-0.652-2.287-1.237-2.287z" fill="#fff"/><path fill="#9C584F" clip-rule="evenodd" d="m24.076 32.705s0.499-1.418 1.109-0.089c0 0-0.457 0.297-0.285 0.996l1.428 0.546h-3.23l1.28-0.575s0.184-1.056-0.302-0.878z" fill-rule="evenodd"/></svg><svg xmlns:xlink="http://www.w3.org/1999/xlink" id="webicon-twitter" xml:space="preserve" viewBox="0 0 48 48" version="1.1" y="64" x="0px" enable-background="new 0 0 48 48" width="32" height="32"><linearGradient id="webicon-twitter-SVGID_1_" y2="48" gradientUnits="userSpaceOnUse" x2="24" x1="24">	<stop stop-color="#4BD0EF" offset="0"/>	<stop stop-color="#29AAE1" offset="1"/></linearGradient><path fill="url(#webicon-twitter-SVGID_1_)" clip-rule="evenodd" d="m48 42c0 3.313-2.687 6-6 6h-36c-3.313 0-6-2.687-6-6v-36c0-3.313 2.687-6 6-6h36c3.313 0 6 2.687 6 6v36z" fill-rule="evenodd"/><path d="m40.231 13.413c-1.12 0.497-2.323 0.833-3.588 0.984 1.291-0.774 2.28-1.998 2.747-3.457-1.206 0.716-2.543 1.236-3.968 1.516-1.139-1.214-2.763-1.972-4.56-1.972-3.449 0-6.246 2.796-6.246 6.247 0 0.49 0.055 0.966 0.161 1.424-5.192-0.261-9.795-2.749-12.876-6.528-0.538 0.923-0.846 1.996-0.846 3.141 0 2.167 1.103 4.08 2.779 5.199-1.024-0.032-1.987-0.313-2.83-0.781v0.079c0 3.026 2.153 5.551 5.011 6.125-0.525 0.143-1.076 0.219-1.646 0.219-0.403 0-0.794-0.038-1.176-0.11 0.795 2.48 3.102 4.287 5.835 4.338-2.138 1.675-4.832 2.675-7.758 2.675-0.504 0-1.002-0.03-1.491-0.089 2.765 1.773 6.048 2.808 9.576 2.808 11.49 0 17.774-9.519 17.774-17.774 0-0.271-0.006-0.54-0.019-0.809 1.224-0.882 2.284-1.982 3.121-3.235z" fill="#29AAE1"/><path d="m40.231 14.739c-1.12 0.497-2.323 0.833-3.588 0.984 1.291-0.773 2.28-1.998 2.747-3.456-1.206 0.716-2.543 1.236-3.968 1.516-1.139-1.214-2.763-1.972-4.56-1.972-3.449 0-6.246 2.796-6.246 6.247 0 0.489 0.055 0.966 0.161 1.424-5.192-0.261-9.795-2.748-12.876-6.527-0.538 0.923-0.846 1.996-0.846 3.141 0 2.167 1.103 4.079 2.779 5.199-1.024-0.032-1.987-0.313-2.83-0.781v0.079c0 3.027 2.153 5.551 5.011 6.125-0.525 0.144-1.076 0.219-1.646 0.219-0.403 0-0.794-0.038-1.176-0.11 0.795 2.481 3.102 4.287 5.835 4.338-2.138 1.676-4.832 2.675-7.758 2.675-0.504 0-1.002-0.03-1.491-0.089 2.765 1.773 6.048 2.808 9.576 2.808 11.49 0 17.774-9.519 17.774-17.774 0-0.271-0.006-0.54-0.019-0.808 1.224-0.885 2.284-1.985 3.121-3.238z" fill="#fff"/></svg></svg>
